<svg xmlns="http://www.w3.org/2000/svg" viewBox="0 0 64 64"><title>LEAF_TREE-98</title><g id="Layer_57" data-name="Layer 57"><path d="M32.64,22.31,38.43,19l8,2.23a2.29,2.29,0,1,0,2.28-2.38,2.3,2.3,0,0,0-1.86.94L40.28,18l6.5-3.67A.75.75,0,0,0,46,13l-1.2.68L46.5,8.46a2.23,2.23,0,1,0-2.38-2.23A2.21,2.21,0,0,0,45.06,8l-2.13,6.76-10.29,5.8V16.72a.75.75,0,0,0-1.5,0v.95l-2.87-3.36L30.73,10a2.34,2.34,0,0,0,.39,0,2.24,2.24,0,1,0-2.29-2.23,2.19,2.19,0,0,0,.59,1.48L27.23,13.1l-1-1.2a2.17,2.17,0,0,0,.33-1.14A2.29,2.29,0,1,0,24.24,13a2.33,2.33,0,0,0,.8-.15L31.14,20V30.39L23.36,26.6l-1.72-7.28a2.22,2.22,0,0,0,1.08-1.89,2.29,2.29,0,1,0-2.54,2.21l1.45,6.1-7.34-3.58a2.15,2.15,0,0,0,0-.27A2.29,2.29,0,1,0,12,24.14a2.31,2.31,0,0,0,1.59-.63l17.54,8.54v3.45L28,36.67l-8.41-4.1a2.15,2.15,0,0,0,0-.27,2.29,2.29,0,1,0-2.29,2.23,2.31,2.31,0,0,0,1.59-.63L26.1,37.4l-2.42.91a2.3,2.3,0,0,0-1.73-.78,2.24,2.24,0,1,0,2.29,2.23s0,0,0-.06l6.9-2.59V47H25a1,1,0,0,0-.92.62l-5,12A1,1,0,0,0,20,61H44a1,1,0,0,0,.92-1.38l-5-12A1,1,0,0,0,39,47H32.64V34.38l5-1.46,5.14,4.51a2.18,2.18,0,0,0-.18.86,2.29,2.29,0,1,0,2.29-2.23,2.32,2.32,0,0,0-1.09.28l-4.46-3.91,6-1.75a2.3,2.3,0,0,0,1.84.91,2.23,2.23,0,1,0-2.28-2.35L32.64,32.82ZM42.5,59h-21l4.17-10H38.33Z"/></g></svg>